<svg height="512pt" viewBox="0 0 512 512" width="512pt" xmlns="http://www.w3.org/2000/svg" xmlns:xlink="http://www.w3.org/1999/xlink"><linearGradient id="a" gradientUnits="userSpaceOnUse" x1="0" x2="512" y1="256" y2="256"><stop offset="0" stop-color="#00f38d"/><stop offset="1" stop-color="#009eff"/></linearGradient><path d="m512 256c0 141.386719-114.613281 256-256 256s-256-114.613281-256-256 114.613281-256 256-256 256 114.613281 256 256zm0 0" fill="url(#a)"/><g fill="#fff"><path d="m231.75 242.929688h66.0625v30h-66.0625zm0 0"/><path d="m231.75 168.140625h66.0625v30h-66.0625zm0 0"/><path d="m205.539062 218.09375-28.777343 32.640625-13.273438-12.464844-20.535156 21.867188 35.839844 33.65625 49.25-55.859375zm0 0"/><path d="m163.488281 313.058594-20.535156 21.867187 35.839844 33.65625 49.25-55.859375-22.503907-19.839844-28.777343 32.640626zm0 0"/><path d="m205.539062 142.679688-28.777343 32.640624-13.273438-12.464843-20.535156 21.871093 35.839844 33.65625 49.25-55.863281zm0 0"/><path d="m360.6875 247.175781-85.527344 87.945313c-5.058594 5.078125-8.921875 11.359375-11.179687 18.164062l-.226563.6875-14.414062 63.386719 63.550781-14.226563.710937-.234374c6.84375-2.265626 13.152344-6.15625 18.25-11.25l85.511719-87.925782zm-49.699219 122.898438-14.179687-14.1875 64.199218-66.011719 14.199219 14.164062zm0 0"/><path d="m119.566406 376.34375v-244.308594c0-6.875 5.589844-12.464844 12.464844-12.464844h178.179688c6.871093 0 12.464843 5.589844 12.464843 12.464844v122.105469l24.929688-25.632813v-96.472656c0-20.621094-16.777344-37.394531-37.394531-37.394531h-178.179688c-20.621094 0-37.394531 16.773437-37.394531 37.394531v244.308594c0 20.621094 16.773437 37.394531 37.394531 37.394531h95.164062l5.671876-24.929687h-100.835938c-6.875 0-12.464844-5.589844-12.464844-12.464844zm0 0"/></g></svg>